<svg xmlns="http://www.w3.org/2000/svg" viewBox="0 0 100 100">
  <path fill="#fff" fill-opacity=".8" d="M49.373 49.294L37.78 92.618c-.13.485-.352.882-.66 1.19-.266.31-.685.552-1.26.73-.573.175-1.324.286-2.25.33-.884.088-1.987.132-3.312.132-1.37 0-2.494-.044-3.377-.132-.83-.09-1.54-.22-2.12-.397-.52-.17-.92-.42-1.19-.72-.26-.31-.46-.68-.59-1.12L5.6 36.04c-.22-.66-.377-1.213-.466-1.654-.087-.44-.13-.816-.13-1.125 0-.4.087-.71.264-.93.177-.27.463-.47.86-.6.442-.18 1.016-.29 1.723-.33.71-.04 1.57-.07 2.58-.07 1.24 0 2.23.05 2.98.13.75.05 1.33.16 1.72.33.4.14.69.36.86.67.18.27.34.6.47 1l14.37 49.1.14.6.14-.59L44.34 33.6zM95 33.26c0 .308-.044.683-.132 1.124-.09.44-.243.993-.464 1.655L78.33 87.9l-9.14-3.23 14.816-51.21c.088-.397.22-.728.397-.993.22-.31.53-.53.927-.662.443-.176 1.017-.286 1.723-.33.75-.09 1.7-.133 2.848-.133 1.06 0 1.9.022 2.52.066.66.044 1.17.155 1.53.33.4.178.67.376.8.597.18.22.27.53.27.926z"/>
  <path fill="#fff" d="M78.84 89.785c0 .593-.02 1.123-.064 1.59-.042.424-.106.784-.19 1.08-.043.298-.107.552-.192.764-.084.21-.212.4-.382.57-.17.17-.466.32-.89.44-.383.17-.828.29-1.338.38-.51.13-1.04.21-1.59.25-.51.08-1.04.12-1.593.12-1.9 0-3.6-.22-5.09-.64-1.44-.38-2.71-1.06-3.82-2.04-1.1-1.02-2.08-2.397-2.93-4.136-.84-1.737-1.67-3.94-2.48-6.613L47.71 46.72 43 32.604l-1.655-4.96c-1.995-6.15-3.587-9.987-4.775-11.513-1.188-1.52-2.95-2.29-5.284-2.29-1.188 0-2.46.2-3.82.58-1.357.34-2.185.51-2.482.51-.212 0-.403-.04-.573-.13-.12-.08-.25-.25-.38-.51-.08-.29-.15-.65-.19-1.08-.04-.46-.06-1.06-.06-1.78 0-1.27.07-2.25.19-2.92.13-.72.34-1.23.64-1.52.34-.34.79-.61 1.34-.82.6-.213 1.34-.425 2.23-.637.94-.212 1.79-.34 2.55-.382.76-.085 1.49-.13 2.16-.13 2.3 0 4.35.257 6.18.766 1.83.51 3.48 1.486 4.97 2.928 1.49 1.44 2.87 3.45 4.14 6.04 1.32 2.58 2.59 5.96 3.82 10.11l16.74 54.13c.43 1.48.85 2.67 1.28 3.56.43.89.85 1.59 1.28 2.1.466.505.976.87 1.527 1.08.55.17 1.21.25 1.97.25.51 0 .974-.02 1.4-.06.423-.08.783-.125 1.08-.125.297 0 .55.045.763.13.21.086.36.28.44.575.128.253.21.656.256 1.207.085.51.127 1.21.127 2.1zM19 33.43z"/>
</svg>
